<svg xmlns="http://www.w3.org/2000/svg" width="166" height="181" viewBox="0 0 166 181" fill="none">
                  <g opacity="0.06">
                    <path d="M32.038 72.3179C31.7026 71.5655 25.451 41.3586 57.0249 28.2981C78.263 19.513 103.808 26.4121 113.264 47.6299C119.836 62.3771 113.524 75.6814 102.682 87.4734C98.8736 91.7219 100.61 95.994 102.823 100.96L106.579 109.387L83.2168 119.05L75.9067 102.648C72.9559 96.0267 70.8247 90.4919 75.2515 83.4928C81.2727 74.0516 89.142 70.2619 84.3804 59.5776C81.1613 52.3546 73.7841 49.3467 67.4126 51.9823C57.2187 56.1989 56.2869 67.2777 57.6131 74.3927L32.038 72.3179ZM122.577 133.245C126.802 142.725 123.002 153.386 113.94 157.134C105.02 160.824 94.3791 156.137 90.1541 146.656C85.8619 137.026 89.6625 126.364 98.5827 122.674C107.644 118.926 118.285 123.614 122.577 133.245Z" fill="var(--color-primary)" fill-opacity="0.5"></path>
                    <path d="M106.263 118.478L97.7661 122.126L112.262 155.888L120.76 152.24L106.263 118.478Z" fill="var(--color-primary)" fill-opacity="0.5"></path>
                    <path d="M40.5389 68.6694C40.2036 67.9171 33.952 37.7101 65.5259 24.6497C86.764 15.8645 112.309 22.7637 121.765 43.9815C128.337 58.7287 122.025 72.033 111.183 83.8251C107.374 88.0736 109.111 92.3457 111.324 97.3113L115.079 105.738L91.7174 115.402L84.4073 98.9994C81.4566 92.3784 79.3253 86.8436 83.7521 79.8445C89.7733 70.4033 97.6427 66.6136 92.8811 55.9293C89.662 48.7063 82.2847 45.6984 75.9132 48.334C65.7193 52.5506 64.7875 63.6294 66.1137 70.7444L40.5389 68.6694ZM131.078 129.596C135.303 139.077 131.502 149.738 122.441 153.486C113.521 157.176 102.88 152.488 98.6547 143.008C94.3625 133.377 98.1631 122.716 107.083 119.026C116.145 115.278 126.786 119.966 131.078 129.596Z" fill="var(--color-primary)"></path>
                    <path d="M31.3276 74.3447L39.825 70.6963L65.9923 71.8589L57.4953 75.5072L31.3276 74.3447Z" fill="var(--color-primary)" fill-opacity="0.4"></path>
                  </g>
                </svg>