<svg xmlns="http://www.w3.org/2000/svg" width="118" height="119" viewBox="0 0 118 119" fill="none">
                  <g opacity="0.05">
                    <path d="M36.4391 42.706C36.2091 42.1358 33.0723 19.7058 60.7168 12.1988C79.3118 7.1492 100.433 13.8137 106.922 29.8927C111.431 41.0682 105.143 50.3678 95.1291 58.2748C91.6043 61.1299 92.769 64.3566 94.2875 68.1195L96.8646 74.5057L76.4101 80.0602L71.3941 67.6302C69.3693 62.6128 67.9605 58.4399 72.2047 53.6183C77.9718 47.1176 84.8999 44.8567 81.6326 36.7601C79.4237 31.2864 73.3964 28.6212 67.8178 30.1361C58.8925 32.5598 57.3147 40.5801 57.9297 45.854L36.4391 42.706ZM108.7 92.9284C111.6 100.113 107.624 107.645 99.6907 109.799C91.8806 111.92 83.2115 107.821 80.3124 100.637C77.3672 93.339 81.3425 85.8064 89.1526 83.6856C97.0862 81.5312 105.755 85.6303 108.7 92.9284Z" fill="var(--color-primary)" fill-opacity="0.5"></path>
                    <path d="M95.8779 81.1625L88.4385 83.2969L98.2235 108.915L105.663 106.78L95.8779 81.1625Z" fill="var(--color-primary)" fill-opacity="0.5"></path>
                    <path d="M43.8796 40.5732C43.6495 40.003 40.5127 17.573 68.1572 10.066C86.7523 5.01639 107.874 11.6809 114.362 27.7599C118.872 38.9354 112.583 48.235 102.569 56.1421C99.0444 58.9972 100.209 62.2239 101.728 65.9868L104.305 72.3729L83.8502 77.9275L78.8342 65.4975C76.8094 60.48 75.4007 56.3072 79.6448 51.4856C85.412 44.9848 92.3401 42.724 89.0727 34.6274C86.8639 29.1537 80.8365 26.4884 75.2579 28.0033C66.3327 30.427 64.7548 38.4474 65.3699 43.7212L43.8796 40.5732ZM116.141 90.7956C119.04 97.98 115.064 105.512 107.131 107.667C99.3207 109.788 90.6516 105.689 87.7525 98.5046C84.8073 91.2062 88.7826 83.6737 96.5927 81.5528C104.527 79.3983 113.196 83.4976 116.141 90.7956Z" fill="var(--color-primary)"></path>
                    <path d="M35.8188 44.1504L43.2582 42.0161L65.2665 44.5151L57.8274 46.6493L35.8188 44.1504Z" fill="var(--color-primary)" fill-opacity="0.4"></path>
                  </g>
                </svg>