<svg xmlns="http://www.w3.org/2000/svg" width="43" height="42" viewBox="0 0 43 42" fill="none" class="text-primary">
                        <path opacity="0.5" d="M13.1788 3.5H29.8212C31.8493 3.5 32.8633 3.5 33.681 3.78457C35.2319 4.32418 36.4494 5.57758 36.9735 7.17405C37.25 8.01596 37.25 9.05984 37.25 11.1476V35.6549C37.25 37.1567 35.5262 37.9536 34.4358 36.9558C33.7951 36.3695 32.8299 36.3695 32.1892 36.9558L31.3438 37.7295C30.2209 38.7569 28.5291 38.7569 27.4062 37.7295C26.2834 36.702 24.5916 36.702 23.4688 37.7295C22.3459 38.7569 20.654 38.7569 19.5312 37.7295C18.4085 36.702 16.7165 36.702 15.5938 37.7295C14.471 38.7569 12.779 38.7569 11.6562 37.7295L10.8108 36.9558C10.1702 36.3695 9.2048 36.3695 8.56417 36.9558C7.47375 37.9536 5.75 37.1567 5.75 35.6549V11.1476C5.75 9.05984 5.75 8.01596 6.02641 7.17405C6.55059 5.57758 7.76814 4.32418 9.31893 3.78457C10.1367 3.5 11.1507 3.5 13.1788 3.5Z" fill="currentColor" fill-opacity="0.5"></path>
                        <path d="M12.75 11.8125C12.0251 11.8125 11.4375 12.4001 11.4375 13.125C11.4375 13.8499 12.0251 14.4375 12.75 14.4375H13.625C14.3499 14.4375 14.9375 13.8499 14.9375 13.125C14.9375 12.4001 14.3499 11.8125 13.625 11.8125H12.75Z" fill="currentColor" fill-opacity="0.5"></path>
                        <path d="M18.875 11.8125C18.1502 11.8125 17.5625 12.4001 17.5625 13.125C17.5625 13.8499 18.1502 14.4375 18.875 14.4375H30.25C30.9748 14.4375 31.5625 13.8499 31.5625 13.125C31.5625 12.4001 30.9748 11.8125 30.25 11.8125H18.875Z" fill="currentColor" fill-opacity="0.5"></path>
                        <path d="M12.75 17.9375C12.0251 17.9375 11.4375 18.5252 11.4375 19.25C11.4375 19.9748 12.0251 20.5625 12.75 20.5625H13.625C14.3499 20.5625 14.9375 19.9748 14.9375 19.25C14.9375 18.5252 14.3499 17.9375 13.625 17.9375H12.75Z" fill="currentColor" fill-opacity="0.5"></path>
                        <path d="M18.875 17.9375C18.1502 17.9375 17.5625 18.5252 17.5625 19.25C17.5625 19.9748 18.1502 20.5625 18.875 20.5625H30.25C30.9748 20.5625 31.5625 19.9748 31.5625 19.25C31.5625 18.5252 30.9748 17.9375 30.25 17.9375H18.875Z" fill="currentColor" fill-opacity="0.5"></path>
                        <path d="M12.75 24.0625C12.0251 24.0625 11.4375 24.6502 11.4375 25.375C11.4375 26.0998 12.0251 26.6875 12.75 26.6875H13.625C14.3499 26.6875 14.9375 26.0998 14.9375 25.375C14.9375 24.6502 14.3499 24.0625 13.625 24.0625H12.75Z" fill="currentColor" fill-opacity="0.5"></path>
                        <path d="M18.875 24.0625C18.1502 24.0625 17.5625 24.6502 17.5625 25.375C17.5625 26.0998 18.1502 26.6875 18.875 26.6875H30.25C30.9748 26.6875 31.5625 26.0998 31.5625 25.375C31.5625 24.6502 30.9748 24.0625 30.25 24.0625H18.875Z" fill="currentColor" fill-opacity="0.5"></path>
                      </svg>