<svg xmlns="http://www.w3.org/2000/svg" width="116" height="150" viewBox="0 0 116 150" fill="none">
                  <g opacity="0.08">
                    <path d="M16.9554 30.3465C17.0827 29.5437 28.4181 0.863619 62.9102 5.34236C86.1113 8.35499 104.343 26.7815 100.753 49.421C98.258 65.1563 85.4391 73.3239 69.547 77.9789C63.906 79.7044 63.0386 84.1802 62.1985 89.4785L60.7728 98.4703L35.2516 95.1564L38.0267 77.6548C39.1468 70.5902 40.3728 64.8497 48.0714 61.0976C58.4992 56.0608 67.392 56.724 69.1996 45.3239C70.4216 37.6168 65.719 31.4347 58.7586 30.5309C47.6225 29.0849 40.6813 38.0158 37.885 44.6991L16.9554 30.3465ZM61.3688 126.569C59.7648 136.685 50.5783 143.849 40.6794 142.564C30.9348 141.298 24.3449 132.085 25.9488 121.97C27.5782 111.694 36.7648 104.529 46.5095 105.795C56.4083 107.08 62.9981 116.293 61.3688 126.569Z" fill="var(--color-primary)" fill-opacity="0.5"></path>
                    <path d="M56.1439 106.729L46.9902 105.416L41.7716 141.786L50.9253 143.1L56.1439 106.729Z" fill="var(--color-primary)" fill-opacity="0.5"></path>
                    <path d="M26.1092 31.661C26.2365 30.8582 37.5719 2.17807 72.064 6.65682C95.2651 9.66945 113.496 28.096 109.907 50.7355C107.412 66.4707 94.5929 74.6383 78.7005 79.2933C73.0594 81.0188 72.192 85.4946 71.3519 90.7929L69.9262 99.7847L44.4051 96.4708L47.1801 78.9692C48.3003 71.9046 49.5263 66.1641 57.2249 62.412C67.6526 57.3752 76.5455 58.0384 78.3531 46.6383C79.5751 38.9312 74.8724 32.7491 67.912 31.8453C56.776 30.3993 49.8347 39.3302 47.0384 46.0135L26.1092 31.661ZM70.5222 127.884C68.9183 137.999 59.7317 145.163 49.8329 143.878C40.0882 142.613 33.4984 133.4 35.1022 123.284C36.7316 113.008 45.9182 105.844 55.6629 107.109C65.5621 108.395 72.1515 117.608 70.5222 127.884Z" fill="var(--color-primary)"></path>
                    <path d="M15.1777 30.0176L24.3314 31.331L46.0603 45.9576L36.907 44.6442L15.1777 30.0176Z" fill="var(--color-primary)" fill-opacity="0.4"></path>
                  </g>
                </svg>