<svg xmlns="http://www.w3.org/2000/svg" width="43" height="42" viewBox="0 0 43 42" fill="none" class="text-primary">
                        <path d="M21.5 17.5C25.366 17.5 28.5 14.366 28.5 10.5C28.5 6.63401 25.366 3.5 21.5 3.5C17.634 3.5 14.5 6.63401 14.5 10.5C14.5 14.366 17.634 17.5 21.5 17.5Z" fill="currentColor" fill-opacity="0.5"></path>
                        <path fill-rule="evenodd" clip-rule="evenodd" d="M29.375 38.5C26.4877 38.5 25.0439 38.5 24.147 37.603C23.25 36.7061 23.25 35.2623 23.25 32.375C23.25 29.4877 23.25 28.0439 24.147 27.147C25.0439 26.25 26.4877 26.25 29.375 26.25C32.2623 26.25 33.7061 26.25 34.603 27.147C35.5 28.0439 35.5 29.4877 35.5 32.375C35.5 35.2623 35.5 36.7061 34.603 37.603C33.7061 38.5 32.2623 38.5 29.375 38.5ZM32.819 31.0552C33.2177 30.6565 33.2177 30.0102 32.819 29.6116C32.4204 29.2128 31.7741 29.2128 31.3754 29.6116L28.0139 32.973L27.3746 32.3337C26.9759 31.9351 26.3296 31.9351 25.931 32.3337C25.5323 32.7324 25.5323 33.3788 25.931 33.7774L27.292 35.1384C27.6906 35.5372 28.3371 35.5372 28.7357 35.1384L32.819 31.0552Z" fill="currentColor" fill-opacity="0.5"></path>
                        <path opacity="0.5" d="M32.1657 26.3046C31.4223 26.25 30.5102 26.25 29.375 26.25C26.4877 26.25 25.0439 26.25 24.1471 27.147C23.25 28.0439 23.25 29.4877 23.25 32.375C23.25 34.416 23.25 35.7357 23.5669 36.6508C22.8949 36.7161 22.2044 36.75 21.5 36.75C14.7345 36.75 9.25 33.6159 9.25 29.75C9.25 25.8841 14.7345 22.75 21.5 22.75C26.0735 22.75 30.0617 24.1822 32.1657 26.3046Z" fill="currentColor" fill-opacity="0.5"></path>
                      </svg>