<svg xmlns="http://www.w3.org/2000/svg" width="43" height="42" viewBox="0 0 43 42" fill="none" class="text-primary">
                        <path opacity="0.5" d="M11.4549 37.4297H11C9.35008 37.4297 8.52513 37.4297 8.01256 36.9171C7.5 36.4046 7.5 35.5796 7.5 33.9297V31.9837C7.5 31.0763 7.5 30.6227 7.73307 30.2176C7.96613 29.8123 8.31772 29.6079 9.02093 29.1989C13.6505 26.5062 20.2251 24.9905 24.6134 27.6078C24.9081 27.7837 25.1734 27.996 25.3999 28.2504C26.3765 29.3475 26.3055 31.0032 25.1799 31.9856C24.9421 32.193 24.6888 32.3505 24.4337 32.4051C24.6433 32.3808 24.8442 32.353 25.036 32.3223C26.631 32.0679 27.9697 31.2156 29.1954 30.2897L32.358 27.9008C33.473 27.0585 35.1278 27.0583 36.2429 27.9003C37.2468 28.6584 37.5538 29.9065 36.9191 30.9237C36.179 32.1102 35.1362 33.628 34.1348 34.5553C33.1321 35.4841 31.6393 36.3132 30.4206 36.9014C29.0705 37.5531 27.5791 37.9285 26.0621 38.1742C22.9854 38.672 19.779 38.5961 16.7336 37.9687C15.0119 37.614 13.2239 37.4297 11.4549 37.4297Z" fill="currentColor" fill-opacity="0.5"></path>
                        <path d="M19.5073 5.88586C20.3938 4.29529 20.8373 3.5 21.5 3.5C22.1627 3.5 22.6062 4.29529 23.4927 5.88586L23.7221 6.29736C23.9741 6.74935 24.1001 6.97534 24.2965 7.12446C24.493 7.27358 24.7377 7.32893 25.2268 7.43964L25.6723 7.54042C27.3942 7.92999 28.255 8.12478 28.4597 8.78341C28.6647 9.44205 28.0777 10.1284 26.904 11.5009L26.6002 11.8561C26.2666 12.2461 26.0999 12.4411 26.025 12.6824C25.9499 12.9237 25.9751 13.1839 26.0255 13.7043L26.0713 14.1781C26.2488 16.0094 26.3377 16.9251 25.8013 17.3322C25.2651 17.7392 24.4591 17.3681 22.847 16.6258L22.4299 16.4338C21.9718 16.2229 21.7427 16.1174 21.5 16.1174C21.2573 16.1174 21.0282 16.2229 20.57 16.4338L20.153 16.6258C18.5409 17.3681 17.7348 17.7392 17.1986 17.3322C16.6624 16.9251 16.7511 16.0094 16.9286 14.1781L16.9745 13.7043C17.0249 13.1839 17.0501 12.9237 16.9751 12.6824C16.9001 12.4411 16.7333 12.2461 16.3997 11.8561L16.0961 11.5009C14.9223 10.1284 14.3354 9.44205 14.5402 8.78341C14.745 8.12478 15.6059 7.92999 17.3277 7.54042L17.7731 7.43964C18.2623 7.32893 18.507 7.27358 18.7035 7.12446C18.8998 6.97534 19.0258 6.74935 19.2778 6.29736L19.5073 5.88586Z" fill="currentColor" fill-opacity="0.5"></path>
                        <path d="M34.5035 13.4429C34.947 12.6476 35.1685 12.25 35.5 12.25C35.8314 12.25 36.053 12.6477 36.4964 13.4429L36.611 13.6487C36.737 13.8747 36.8 13.9877 36.8982 14.0622C36.9964 14.1368 37.1187 14.1645 37.3634 14.2198L37.5861 14.2702C38.447 14.465 38.8775 14.5624 38.9798 14.8917C39.0822 15.221 38.7889 15.5642 38.202 16.2505L38.0501 16.428C37.8833 16.6231 37.8 16.7206 37.7624 16.8412C37.7249 16.9618 37.7375 17.0919 37.7627 17.3521L37.7856 17.5891C37.8744 18.5047 37.9188 18.9625 37.6507 19.166C37.3826 19.3695 36.9796 19.184 36.1735 18.8128L35.9649 18.7169C35.7359 18.6114 35.6214 18.5587 35.5 18.5587C35.3785 18.5587 35.2641 18.6114 35.035 18.7169L34.8264 18.8128C34.0203 19.184 33.6173 19.3695 33.3492 19.166C33.0811 18.9625 33.1256 18.5047 33.2143 17.5891L33.2372 17.3521C33.2624 17.0919 33.275 16.9618 33.2376 16.8412C33.1999 16.7206 33.1166 16.6231 32.9499 16.428L32.798 16.2505C32.2112 15.5642 31.9177 15.221 32.0201 14.8917C32.1225 14.5624 32.553 14.465 33.4138 14.2702L33.6366 14.2198C33.8812 14.1645 34.0035 14.1368 34.1017 14.0622C34.1999 13.9877 34.2629 13.8747 34.3889 13.6487L34.5035 13.4429Z" fill="currentColor" fill-opacity="0.5"></path>
                        <path d="M6.50361 13.4429C6.94694 12.6476 7.16861 12.25 7.50001 12.25C7.8314 12.25 8.05308 12.6477 8.4964 13.4429L8.6111 13.6487C8.73708 13.8747 8.80006 13.9877 8.89827 14.0622C8.99648 14.1368 9.11881 14.1645 9.36344 14.2198L9.58616 14.2702C10.4471 14.465 10.8775 14.5624 10.9799 14.8917C11.0823 15.221 10.7889 15.5642 10.202 16.2505L10.0501 16.428C9.88335 16.6231 9.79996 16.7206 9.76246 16.8412C9.72494 16.9618 9.73754 17.0919 9.76276 17.3521L9.78572 17.5891C9.87444 18.5047 9.91882 18.9625 9.6507 19.166C9.38259 19.3695 8.97958 19.184 8.17353 18.8128L7.96498 18.7169C7.73592 18.6114 7.6214 18.5587 7.50001 18.5587C7.37861 18.5587 7.26409 18.6114 7.03503 18.7169L6.82648 18.8128C6.02045 19.184 5.61743 19.3695 5.34931 19.166C5.08119 18.9625 5.12557 18.5047 5.2143 17.5891L5.23726 17.3521C5.26247 17.0919 5.27507 16.9618 5.23755 16.8412C5.20005 16.7206 5.11666 16.6231 4.94987 16.428L4.79804 16.2505C4.21114 15.5642 3.91769 15.221 4.0201 14.8917C4.12251 14.5624 4.55295 14.465 5.41385 14.2702L5.63657 14.2198C5.8812 14.1645 6.00353 14.1368 6.10174 14.0622C6.19995 13.9877 6.26295 13.8747 6.38891 13.6487L6.50361 13.4429Z" fill="currentColor" fill-opacity="0.5"></path>
                      </svg>