<svg xmlns="http://www.w3.org/2000/svg" width="43" height="42" viewBox="0 0 43 42" fill="none" class="text-primary">
                        <path d="M19.6207 4.13037C20.2392 4.50845 20.434 5.31631 20.056 5.93477C19.7816 6.38356 19.8503 6.96187 20.2222 7.33381L20.3935 7.5051C21.4238 8.53526 21.8035 10.0486 21.3819 11.4431C21.1723 12.137 20.4397 12.5295 19.7459 12.3197C19.052 12.11 18.6596 11.3775 18.8693 10.6836C19.0109 10.2153 18.8833 9.70716 18.5373 9.36126L18.3662 9.18997C17.1367 7.96056 16.9094 6.04903 17.8163 4.56561C18.1943 3.94714 19.0021 3.75228 19.6207 4.13037Z" fill="currentColor" fill-opacity="0.5"></path>
                        <path d="M35.4549 12.3319C35.2125 12.4252 34.9978 12.6399 34.5685 13.0694C34.1391 13.4988 33.9244 13.7135 33.8309 13.9558C33.7217 14.2392 33.7217 14.5532 33.8309 14.8366C33.9244 15.0789 34.1391 15.2936 34.5685 15.723C34.9978 16.1524 35.2125 16.3671 35.4549 16.4605C35.7382 16.5697 36.0522 16.5697 36.3357 16.4605C36.5779 16.3671 36.7926 16.1524 37.2221 15.723C37.6515 15.2936 37.8662 15.0789 37.9595 14.8366C38.0687 14.5532 38.0687 14.2392 37.9595 13.9558C37.8662 13.7135 37.6515 13.4988 37.2221 13.0694C36.7926 12.6399 36.5779 12.4252 36.3357 12.3319C36.0522 12.2227 35.7382 12.2227 35.4549 12.3319Z" fill="currentColor" fill-opacity="0.5"></path>
                        <path d="M37.9639 21.9793C37.3309 21.7026 36.5947 21.8188 36.0779 22.2771C34.6616 23.5329 32.6008 23.7417 30.9616 22.7953L30.589 22.5802C29.9613 22.2178 29.7462 21.4151 30.1087 20.7874C30.4711 20.1596 31.2738 19.9444 31.9015 20.307L32.2741 20.5219C32.9347 20.9034 33.7655 20.8192 34.3363 20.3131C35.6187 19.176 37.445 18.8876 39.0155 19.5741L39.5256 19.7972C40.1897 20.0875 40.4928 20.8614 40.2023 21.5255C39.912 22.1898 39.1381 22.4927 38.474 22.2024L37.9639 21.9793Z" fill="currentColor" fill-opacity="0.5"></path>
                        <path opacity="0.7" d="M24.2318 7.69384C24.5837 7.34198 24.7596 7.16605 24.9629 7.10157C25.1351 7.04704 25.3198 7.04704 25.4918 7.10157C25.6953 7.16605 25.8712 7.34198 26.2231 7.69384C26.5749 8.04567 26.7507 8.2216 26.8153 8.42502C26.8699 8.59708 26.8699 8.78179 26.8153 8.95384C26.7507 9.15726 26.5749 9.33318 26.2231 9.68502C25.8712 10.0369 25.6953 10.2128 25.4918 10.2773C25.3198 10.3318 25.1351 10.3318 24.9629 10.2773C24.7596 10.2128 24.5837 10.0369 24.2318 9.68504C23.88 9.33318 23.704 9.15726 23.6396 8.95384C23.585 8.78179 23.585 8.59708 23.6396 8.42502C23.704 8.2216 23.88 8.04567 24.2318 7.69384Z" fill="currentColor" fill-opacity="0.5"></path>
                        <path opacity="0.7" d="M33.8502 26.7984C34.2168 26.4318 34.8111 26.4318 35.1775 26.7984C35.5442 27.1649 35.5442 27.7592 35.1775 28.1258C34.8111 28.4924 34.2168 28.4924 33.8502 28.1258C33.4835 27.7592 33.4835 27.1649 33.8502 26.7984Z" fill="currentColor" fill-opacity="0.5"></path>
                        <g opacity="0.5">
                          <path d="M12.6216 6.89639C12.9882 6.52982 13.5825 6.52982 13.9491 6.89639C14.3157 7.26296 14.3157 7.8573 13.9491 8.22387C13.5825 8.59044 12.9882 8.59044 12.6216 8.22387C12.255 7.8573 12.255 7.26296 12.6216 6.89639Z" fill="currentColor" fill-opacity="0.5"></path>
                          <path d="M31.4554 8.2628C32.1663 8.40497 32.6272 9.09643 32.4851 9.80723L32.2331 11.0671C31.8863 12.801 30.637 14.2162 28.9596 14.7754C28.1756 15.0367 27.592 15.6979 27.4299 16.5082L27.1779 17.768C27.0356 18.4789 26.3442 18.9398 25.6334 18.7976C24.9227 18.6555 24.4617 17.964 24.6038 17.2532L24.8558 15.9934C25.2025 14.2594 26.4518 12.8443 28.1294 12.2851C28.9132 12.0238 29.497 11.3625 29.6591 10.5523L29.9111 9.29241C30.0532 8.58161 30.7446 8.12065 31.4554 8.2628Z" fill="currentColor" fill-opacity="0.5"></path>
                        </g>
                        <path opacity="0.2" d="M31.1246 17.0477C31.491 16.6812 32.0855 16.6812 32.452 17.0477C32.8186 17.4143 32.8186 18.0087 32.452 18.3752C32.0855 18.7418 31.491 18.7418 31.1246 18.3752C30.758 18.0087 30.758 17.4143 31.1246 17.0477Z" fill="currentColor" fill-opacity="0.5"></path>
                        <path opacity="0.5" d="M7.52088 27.5831L10.4775 18.7133C11.818 14.6917 12.4883 12.6809 14.0742 12.3065C15.6602 11.9321 17.1589 13.4309 20.1565 16.4284L26.0697 22.3415C29.0671 25.3391 30.566 26.8378 30.1915 28.4238C29.8172 30.0097 27.8064 30.6799 23.7847 32.0206L14.9149 34.9772C10.0755 36.5904 7.65572 37.397 6.37843 36.1196C5.10114 34.8423 5.90771 32.4226 7.52088 27.5831Z" fill="currentColor" fill-opacity="0.5"></path>
                        <path d="M15.9002 13.1324L15.9888 12.7036C15.3008 12.3 14.6942 12.1602 14.0744 12.3065C13.8216 12.3662 13.5921 12.4674 13.3794 12.6117L14.5982 12.8635C13.7607 12.6905 13.4762 12.6316 13.3794 12.6117C13.3591 12.6255 13.3387 12.6399 13.3186 12.6545L13.3094 12.7004C13.2967 12.7632 13.2785 12.8551 13.2555 12.9732C13.2095 13.2094 13.1446 13.551 13.0679 13.9766C12.9146 14.8271 12.7139 16.0157 12.5239 17.37C12.1474 20.0531 11.7987 23.4813 11.9783 26.2209C12.087 27.8785 12.4319 29.935 12.7397 31.5416C12.895 32.3526 13.0437 33.0633 13.1537 33.5716C13.2087 33.8259 13.2541 34.03 13.2858 34.1712L13.3228 34.3341L13.3327 34.3772L13.3361 34.3919C13.3361 34.392 13.3365 34.3933 14.6148 34.0958L13.3361 34.3919L13.5758 35.4221C14.0003 35.2821 14.4463 35.1333 14.915 34.9772L16.0773 34.5898L15.8904 33.7865L15.8815 33.7479L15.8467 33.5944C15.8164 33.4598 15.7726 33.2631 15.7193 33.0167C15.6127 32.5237 15.4684 31.8341 15.3178 31.0478C15.0137 29.4605 14.6952 27.5364 14.5977 26.0491C14.4366 23.5924 14.7513 20.3866 15.1234 17.7348C15.3077 16.4216 15.5025 15.2675 15.6513 14.4421C15.7256 14.0297 15.7883 13.7002 15.8322 13.4747C15.8541 13.3619 15.8713 13.2753 15.883 13.2173L15.8961 13.1523L15.8993 13.1366L15.9002 13.1324Z" fill="currentColor" fill-opacity="0.5"></path>
                        <path d="M23.3193 32.176L20.8288 33.006L20.6671 32.5195L21.9128 32.1057C20.6671 32.5195 20.6673 32.5197 20.6671 32.5195L20.6656 32.5146L20.6621 32.5041L20.6496 32.466C20.639 32.4333 20.6237 32.3862 20.6047 32.326C20.5665 32.2054 20.5124 32.0323 20.448 31.8169C20.3192 31.3869 20.1477 30.7855 19.9759 30.0974C19.6397 28.7513 19.2734 26.9622 19.2734 25.4716C19.2734 23.9809 19.6397 22.1919 19.9759 20.8458C20.1477 20.1577 20.3192 19.5562 20.448 19.1263C20.5124 18.9108 20.5665 18.7378 20.6047 18.6172C20.6237 18.557 20.639 18.5099 20.6496 18.4772L20.6621 18.439L20.6656 18.4284L20.6666 18.4252C20.6666 18.4252 20.6671 18.4236 21.9128 18.8375L20.6666 18.4252L21.0376 17.309L23.1147 19.386C23.1122 19.3942 23.1094 19.4026 23.1066 19.4113C23.0723 19.5195 23.0226 19.6787 22.9628 19.8789C22.8427 20.28 22.6826 20.8416 22.5227 21.4818C22.1954 22.7922 21.8984 24.3203 21.8984 25.4716C21.8984 26.6229 22.1954 28.151 22.5227 29.4614C22.6826 30.1016 22.8427 30.6631 22.9628 31.0642C23.0226 31.2644 23.0723 31.4237 23.1066 31.5318C23.1238 31.5859 23.1371 31.6272 23.146 31.6542L23.1556 31.6841L23.1579 31.6907L23.3193 32.176Z" fill="currentColor" fill-opacity="0.5"></path>
                      </svg>