<svg xmlns="http://www.w3.org/2000/svg" width="102" height="120" viewBox="0 0 102 120" fill="none">
                  <g opacity="0.06">
                    <path d="M28.7216 21.3499C28.9372 20.7851 41.4433 1.58331 65.1497 9.79441C81.0958 15.3176 91.1148 31.322 85.0343 47.2497C80.8081 58.3201 70.4601 62.4098 58.4869 63.5065C54.2254 63.9489 52.9117 67.0751 51.4887 70.8027L49.0737 77.1288L31.533 71.0533L36.2336 58.7402C38.131 53.77 39.8962 49.7767 45.9306 48.1581C54.097 45.9987 60.2859 47.7587 63.3477 39.7382C65.4177 34.316 63.0568 29.1498 58.273 27.4928C50.6191 24.8418 44.3109 30.3308 41.287 34.7831L28.7216 21.3499ZM45.1012 97.6235C42.3843 104.74 34.7635 108.623 27.9601 106.267C21.2626 103.947 18.0403 96.308 20.7571 89.1915C23.517 81.9618 31.1379 78.0787 37.8354 80.3985C44.6389 82.7549 47.8611 90.3941 45.1012 97.6235Z" fill="var(--color-primary)" fill-opacity="0.5"></path>
                    <path d="M44.7303 82.2389L38.3477 79.918L29.1259 105.278L35.5086 107.599L44.7303 82.2389Z" fill="var(--color-primary)" fill-opacity="0.5"></path>
                    <path d="M35.1044 23.6722C35.32 23.1074 47.8261 3.90558 71.5325 12.1167C87.4786 17.6399 97.4976 33.6442 91.4171 49.572C87.1909 60.6423 76.8429 64.7321 64.8694 65.8287C60.608 66.2711 59.2942 69.3973 57.8712 73.1249L55.4562 79.4509L37.9155 73.3754L42.6161 61.0624C44.5135 56.0921 46.2788 52.0989 52.3131 50.4803C60.4795 48.3208 66.6684 50.0808 69.7303 42.0604C71.8002 36.6382 69.4394 31.472 64.6555 29.815C57.0017 27.164 50.6934 32.653 47.6696 37.1053L35.1044 23.6722ZM51.4838 99.9456C48.7669 107.062 41.1461 110.945 34.3426 108.589C27.6451 106.269 24.4228 98.6302 27.1396 91.5137C29.8996 84.284 37.5205 80.4008 44.218 82.7206C51.0217 85.0772 54.2436 92.7162 51.4838 99.9456Z" fill="var(--color-primary)"></path>
                    <path d="M26.8203 20.9316L33.203 23.2526L46.623 37.0351L40.2406 34.7143L26.8203 20.9316Z" fill="var(--color-primary)" fill-opacity="0.4"></path>
                  </g>
                </svg>